<svg xmlns="http://www.w3.org/2000/svg" xmlns:xlink="http://www.w3.org/1999/xlink" contentStyleType="text/css" data-diagram-type="ACTIVITY" height="1030px" preserveAspectRatio="none" style="width:1336px;height:1030px;background:#FFFFFF;" version="1.1" viewBox="0 0 1336 1030" width="1336px" zoomAndPan="magnify"><title>Innovator-Initiated Workflow: From Solution to Connection</title><defs/><g><g class="title" data-source-line="3"><text fill="#000000" font-family="sans-serif" font-size="14" font-weight="bold" lengthAdjust="spacing" textLength="465.3906" x="434.0688" y="32.9951">Innovator-Initiated Workflow: From Solution to Connection</text></g><rect fill="none" height="20.9531" style="stroke:none;stroke-width:1;" width="1303.5283" x="15" y="50.042"/><ellipse cx="124.5361" cy="85.9951" fill="#222222" rx="10" ry="10" style="stroke:#222222;stroke-width:1;"/><rect fill="#F1F1F1" height="33.9688" rx="12.5" ry="12.5" style="stroke:#181818;stroke-width:0.5;" width="207.0723" x="21" y="115.9951"/><text fill="#000000" font-family="sans-serif" font-size="12" lengthAdjust="spacing" textLength="187.0723" x="31" y="137.1338">Creates New Innovation Listing</text><rect fill="#F1F1F1" height="33.9688" rx="12.5" ry="12.5" style="stroke:#181818;stroke-width:0.5;" width="112.168" x="68.4521" y="169.9639"/><text fill="#000000" font-family="sans-serif" font-size="12" lengthAdjust="spacing" textLength="92.168" x="78.4521" y="191.1025">Submits Listing</text><line style="stroke:#000000;stroke-width:1.5;" x1="15" x2="15" y1="50.042" y2="1018.6123"/><rect fill="#F1F1F1" height="33.9688" rx="12.5" ry="12.5" style="stroke:#181818;stroke-width:0.5;" width="245.1582" x="238.6084" y="442.9561"/><text fill="#000000" font-family="sans-serif" font-size="12" lengthAdjust="spacing" textLength="225.1582" x="248.6084" y="464.0947">Browses or searches the Marketplace</text><rect fill="#F1F1F1" height="33.9688" rx="12.5" ry="12.5" style="stroke:#181818;stroke-width:0.5;" width="210.5645" x="255.9053" y="496.9248"/><text fill="#000000" font-family="sans-serif" font-size="12" lengthAdjust="spacing" textLength="190.5645" x="265.9053" y="518.0635">Discovers a relevant Innovation</text><rect fill="#F1F1F1" height="33.9688" rx="12.5" ry="12.5" style="stroke:#181818;stroke-width:0.5;" width="205.9883" x="258.1934" y="550.8936"/><text fill="#000000" font-family="sans-serif" font-size="12" lengthAdjust="spacing" textLength="185.9883" x="268.1934" y="572.0322">Reviews the Innovator's profile</text><rect fill="#F1F1F1" height="33.9688" rx="12.5" ry="12.5" style="stroke:#181818;stroke-width:0.5;" width="246.2305" x="238.0723" y="604.8623"/><text fill="#000000" font-family="sans-serif" font-size="12" lengthAdjust="spacing" textLength="226.2305" x="248.0723" y="626.001">Clicks "Request Contact Introduction"</text><rect fill="#F1F1F1" height="33.9688" rx="12.5" ry="12.5" style="stroke:#181818;stroke-width:0.5;" width="194.1406" x="264.1172" y="658.8311"/><text fill="#000000" font-family="sans-serif" font-size="12" lengthAdjust="spacing" textLength="174.1406" x="274.1172" y="679.9697">Fills out a short request form</text><line style="stroke:#000000;stroke-width:1.5;" x1="232.0723" x2="232.0723" y1="50.042" y2="1018.6123"/><rect fill="#F1F1F1" height="33.9688" rx="12.5" ry="12.5" style="stroke:#181818;stroke-width:0.5;" width="282.6641" x="494.3027" y="223.9326"/><text fill="#000000" font-family="sans-serif" font-size="12" lengthAdjust="spacing" textLength="262.6641" x="504.3027" y="245.0713">Creates Innovation record (status: Pending)</text><rect fill="#F1F1F1" height="33.9688" rx="12.5" ry="12.5" style="stroke:#181818;stroke-width:0.5;" width="107.8203" x="581.7246" y="277.9014"/><text fill="#000000" font-family="sans-serif" font-size="12" lengthAdjust="spacing" textLength="87.8203" x="591.7246" y="299.04">Notifies Admin</text><path d="M774.4375,382.6904 L774.4375,398.8232 L754.4375,402.8232 L774.4375,406.8232 L774.4375,422.9561 A0,0 0 0 0 774.4375,422.9561 L1058.3257,422.9561 A0,0 0 0 0 1058.3257,422.9561 L1058.3257,392.6904 L1048.3257,382.6904 L774.4375,382.6904 A0,0 0 0 0 774.4375,382.6904" fill="#FEFFDD" style="stroke:#181818;stroke-width:0.5;"/><path d="M1048.3257,382.6904 L1048.3257,392.6904 L1058.3257,392.6904 L1048.3257,382.6904" fill="#FEFFDD" style="stroke:#181818;stroke-width:0.5;"/><text fill="#000000" font-family="sans-serif" font-size="13" lengthAdjust="spacing" textLength="193.4448" x="780.4375" y="399.7573">The Co-pilot could also nudge</text><text fill="#000000" font-family="sans-serif" font-size="13" lengthAdjust="spacing" textLength="262.8882" x="780.4375" y="414.8901">relevant Seekers here in a future phase.</text><rect fill="#F1F1F1" height="33.9688" rx="12.5" ry="12.5" style="stroke:#181818;stroke-width:0.5;" width="237.6055" x="516.832" y="385.8389"/><text fill="#000000" font-family="sans-serif" font-size="12" lengthAdjust="spacing" textLength="217.6055" x="526.832" y="406.9775">Publishes Innovation to Marketplace</text><rect fill="#F1F1F1" height="33.9688" rx="12.5" ry="12.5" style="stroke:#181818;stroke-width:0.5;" width="223.7773" x="523.7461" y="712.7998"/><text fill="#000000" font-family="sans-serif" font-size="12" lengthAdjust="spacing" textLength="203.7773" x="533.7461" y="733.9385">Creates a Contact Request record</text><rect fill="#F1F1F1" height="33.9688" rx="12.5" ry="12.5" style="stroke:#181818;stroke-width:0.5;" width="196.4023" x="537.4336" y="766.7686"/><text fill="#000000" font-family="sans-serif" font-size="12" lengthAdjust="spacing" textLength="176.4023" x="547.4336" y="787.9072">Notifies Admin of the request</text><rect fill="#F1F1F1" height="33.9688" rx="12.5" ry="12.5" style="stroke:#181818;stroke-width:0.5;" width="279.2598" x="496.0049" y="942.6436"/><text fill="#000000" font-family="sans-serif" font-size="12" lengthAdjust="spacing" textLength="259.2598" x="506.0049" y="963.7822">Updates the request status to "Introduced"</text><ellipse cx="635.6348" cy="1007.6123" fill="none" rx="11" ry="11" style="stroke:#222222;stroke-width:1;"/><ellipse cx="635.6348" cy="1007.6123" fill="#222222" rx="6" ry="6" style="stroke:#222222;stroke-width:1;"/><line style="stroke:#000000;stroke-width:1.5;" x1="488.3027" x2="488.3027" y1="50.042" y2="1018.6123"/><rect fill="#F1F1F1" height="33.9688" rx="12.5" ry="12.5" style="stroke:#181818;stroke-width:0.5;" width="186.3945" x="1097.7993" y="331.8701"/><text fill="#000000" font-family="sans-serif" font-size="12" lengthAdjust="spacing" textLength="166.3945" x="1107.7993" y="353.0088">Reviews &amp; Approves Listing</text><rect fill="#F1F1F1" height="33.9688" rx="12.5" ry="12.5" style="stroke:#181818;stroke-width:0.5;" width="196.7129" x="1092.6401" y="820.7373"/><text fill="#000000" font-family="sans-serif" font-size="12" lengthAdjust="spacing" textLength="176.7129" x="1102.6401" y="841.876">Reviews the Contact Request</text><rect fill="#F1F1F1" height="47.9375" rx="12.5" ry="12.5" style="stroke:#181818;stroke-width:0.5;" width="243.3418" x="1069.3257" y="874.7061"/><text fill="#000000" font-family="sans-serif" font-size="12" lengthAdjust="spacing" textLength="216.7266" x="1079.3257" y="895.8447">Sends a personal introduction email</text><text fill="#000000" font-family="sans-serif" font-size="12" lengthAdjust="spacing" textLength="223.3418" x="1079.3257" y="909.8135">to both the Seeker and the Innovator</text><line style="stroke:#000000;stroke-width:1.5;" x1="1063.3257" x2="1063.3257" y1="50.042" y2="1018.6123"/><line style="stroke:#000000;stroke-width:1.5;" x1="1316.6675" x2="1316.6675" y1="50.042" y2="1018.6123"/><line style="stroke:#181818;stroke-width:1;" x1="124.5361" x2="124.5361" y1="95.9951" y2="115.9951"/><polygon fill="#181818" points="120.5361,105.9951,124.5361,115.9951,128.5361,105.9951,124.5361,109.9951" style="stroke:#181818;stroke-width:1;"/><line style="stroke:#181818;stroke-width:1;" x1="124.5361" x2="124.5361" y1="149.9639" y2="169.9639"/><polygon fill="#181818" points="120.5361,159.9639,124.5361,169.9639,128.5361,159.9639,124.5361,163.9639" style="stroke:#181818;stroke-width:1;"/><line style="stroke:#181818;stroke-width:1;" x1="361.1875" x2="361.1875" y1="476.9248" y2="496.9248"/><polygon fill="#181818" points="357.1875,486.9248,361.1875,496.9248,365.1875,486.9248,361.1875,490.9248" style="stroke:#181818;stroke-width:1;"/><line style="stroke:#181818;stroke-width:1;" x1="361.1875" x2="361.1875" y1="530.8936" y2="550.8936"/><polygon fill="#181818" points="357.1875,540.8936,361.1875,550.8936,365.1875,540.8936,361.1875,544.8936" style="stroke:#181818;stroke-width:1;"/><line style="stroke:#181818;stroke-width:1;" x1="361.1875" x2="361.1875" y1="584.8623" y2="604.8623"/><polygon fill="#181818" points="357.1875,594.8623,361.1875,604.8623,365.1875,594.8623,361.1875,598.8623" style="stroke:#181818;stroke-width:1;"/><line style="stroke:#181818;stroke-width:1;" x1="361.1875" x2="361.1875" y1="638.8311" y2="658.8311"/><polygon fill="#181818" points="357.1875,648.8311,361.1875,658.8311,365.1875,648.8311,361.1875,652.8311" style="stroke:#181818;stroke-width:1;"/><line style="stroke:#181818;stroke-width:1;" x1="635.6348" x2="635.6348" y1="257.9014" y2="277.9014"/><polygon fill="#181818" points="631.6348,267.9014,635.6348,277.9014,639.6348,267.9014,635.6348,271.9014" style="stroke:#181818;stroke-width:1;"/><line style="stroke:#181818;stroke-width:1;" x1="635.6348" x2="635.6348" y1="746.7686" y2="766.7686"/><polygon fill="#181818" points="631.6348,756.7686,635.6348,766.7686,639.6348,756.7686,635.6348,760.7686" style="stroke:#181818;stroke-width:1;"/><line style="stroke:#181818;stroke-width:1;" x1="635.6348" x2="635.6348" y1="976.6123" y2="996.6123"/><polygon fill="#181818" points="631.6348,986.6123,635.6348,996.6123,639.6348,986.6123,635.6348,990.6123" style="stroke:#181818;stroke-width:1;"/><line style="stroke:#181818;stroke-width:1;" x1="1190.9966" x2="1190.9966" y1="854.7061" y2="874.7061"/><polygon fill="#181818" points="1186.9966,864.7061,1190.9966,874.7061,1194.9966,864.7061,1190.9966,868.7061" style="stroke:#181818;stroke-width:1;"/><line style="stroke:#181818;stroke-width:1;" x1="124.5361" x2="124.5361" y1="203.9326" y2="208.9326"/><line style="stroke:#181818;stroke-width:1;" x1="124.5361" x2="635.6348" y1="208.9326" y2="208.9326"/><line style="stroke:#181818;stroke-width:1;" x1="635.6348" x2="635.6348" y1="208.9326" y2="223.9326"/><polygon fill="#181818" points="631.6348,213.9326,635.6348,223.9326,639.6348,213.9326,635.6348,217.9326" style="stroke:#181818;stroke-width:1;"/><line style="stroke:#181818;stroke-width:1;" x1="635.6348" x2="635.6348" y1="311.8701" y2="316.8701"/><line style="stroke:#181818;stroke-width:1;" x1="635.6348" x2="1190.9966" y1="316.8701" y2="316.8701"/><line style="stroke:#181818;stroke-width:1;" x1="1190.9966" x2="1190.9966" y1="316.8701" y2="331.8701"/><polygon fill="#181818" points="1186.9966,321.8701,1190.9966,331.8701,1194.9966,321.8701,1190.9966,325.8701" style="stroke:#181818;stroke-width:1;"/><line style="stroke:#181818;stroke-width:1;" x1="1190.9966" x2="1190.9966" y1="365.8389" y2="370.8389"/><line style="stroke:#181818;stroke-width:1;" x1="1190.9966" x2="635.6348" y1="370.8389" y2="370.8389"/><line style="stroke:#181818;stroke-width:1;" x1="635.6348" x2="635.6348" y1="370.8389" y2="385.8389"/><polygon fill="#181818" points="631.6348,375.8389,635.6348,385.8389,639.6348,375.8389,635.6348,379.8389" style="stroke:#181818;stroke-width:1;"/><line style="stroke:#181818;stroke-width:1;" x1="635.6348" x2="635.6348" y1="419.8076" y2="427.9561"/><line style="stroke:#181818;stroke-width:1;" x1="635.6348" x2="361.1875" y1="427.9561" y2="427.9561"/><line style="stroke:#181818;stroke-width:1;" x1="361.1875" x2="361.1875" y1="427.9561" y2="442.9561"/><polygon fill="#181818" points="357.1875,432.9561,361.1875,442.9561,365.1875,432.9561,361.1875,436.9561" style="stroke:#181818;stroke-width:1;"/><line style="stroke:#181818;stroke-width:1;" x1="361.1875" x2="361.1875" y1="692.7998" y2="697.7998"/><line style="stroke:#181818;stroke-width:1;" x1="361.1875" x2="635.6348" y1="697.7998" y2="697.7998"/><line style="stroke:#181818;stroke-width:1;" x1="635.6348" x2="635.6348" y1="697.7998" y2="712.7998"/><polygon fill="#181818" points="631.6348,702.7998,635.6348,712.7998,639.6348,702.7998,635.6348,706.7998" style="stroke:#181818;stroke-width:1;"/><line style="stroke:#181818;stroke-width:1;" x1="635.6348" x2="635.6348" y1="800.7373" y2="805.7373"/><line style="stroke:#181818;stroke-width:1;" x1="635.6348" x2="1190.9966" y1="805.7373" y2="805.7373"/><line style="stroke:#181818;stroke-width:1;" x1="1190.9966" x2="1190.9966" y1="805.7373" y2="820.7373"/><polygon fill="#181818" points="1186.9966,810.7373,1190.9966,820.7373,1194.9966,810.7373,1190.9966,814.7373" style="stroke:#181818;stroke-width:1;"/><line style="stroke:#181818;stroke-width:1;" x1="1190.9966" x2="1190.9966" y1="922.6436" y2="927.6436"/><line style="stroke:#181818;stroke-width:1;" x1="1190.9966" x2="635.6348" y1="927.6436" y2="927.6436"/><line style="stroke:#181818;stroke-width:1;" x1="635.6348" x2="635.6348" y1="927.6436" y2="942.6436"/><polygon fill="#181818" points="631.6348,932.6436,635.6348,942.6436,639.6348,932.6436,635.6348,936.6436" style="stroke:#181818;stroke-width:1;"/><text fill="#000000" font-family="sans-serif" font-size="18" lengthAdjust="spacing" textLength="86.291" x="80.3906" y="66.75">Innovator</text><text fill="#000000" font-family="sans-serif" font-size="18" lengthAdjust="spacing" textLength="62.4727" x="328.9512" y="66.75">Seeker</text><text fill="#000000" font-family="sans-serif" font-size="18" lengthAdjust="spacing" textLength="67.1221" x="742.2532" y="66.75">System</text><text fill="#000000" font-family="sans-serif" font-size="18" lengthAdjust="spacing" textLength="57.6826" x="1161.1553" y="66.75">Admin</text><!--SRC=[XL9DRzim3BtdLn0vhDkX-m7kAKjHeC1M5Cs6NNfHB3ec8ekUH3aeq1y_-ZCscY8-6990llVu7czWamir96zmJ-OGJ9N1e_VS6E5m- -X9o0XQsBBtg9NiLw1VzmCXSGZhI_L_EHmBnwSC7W9Ni6ENscOGda6jPrZl4yhxyB13FEBvzXO5g_6siHNvxhAwr1p51EbEsJQW2ehmXATni5R7Juf2_d3N5-tIlYA9YzVL1ze9QuOJCETWuQioIeePFAEtYl1j07vYeOAqfHCympqF0DaBDeId25zWKzU16xmgv3dj7SLoAKMj_MN24QLs9iTUW6T127Ge9OFV9QhtjpKv5iWvEGl6HGQVx05VVK27ZV42lUyHIWm8vC50aIJfkIvDnEypIRE0iX-1Jr45SO289kIjE5763vAoUugv3gaC1YRIynntIrDQZ2dTcmXgK45knDewoeyHrY_uBs6KThV4v2sS1BQftxAXze6SKtr9b3UM74JP-ww2GtKjSpDXZrnzz1U31YuwuGF1bTob2sO1FkwbRbDBNQjRx8tJECvp0LQ6tAlNtFSiPGVJHmB6swLndqttfxRTT3EnqAzokqxhqKQqWubHkFuF]--></g></svg>