<svg xmlns="http://www.w3.org/2000/svg" xmlns:xlink="http://www.w3.org/1999/xlink" contentStyleType="text/css" data-diagram-type="ACTIVITY" height="1170px" preserveAspectRatio="none" style="width:1685px;height:1170px;background:#FFFFFF;" version="1.1" viewBox="0 0 1685 1170" width="1685px" zoomAndPan="magnify"><title>Core Workflow: From Challenge Creation to Connection</title><defs/><g><g class="title" data-source-line="3"><text fill="#000000" font-family="sans-serif" font-size="14" font-weight="bold" lengthAdjust="spacing" textLength="436.9941" x="622.577" y="32.9951">Core Workflow: From Challenge Creation to Connection</text></g><rect fill="none" height="20.9531" style="stroke:none;stroke-width:1;" width="1652.1482" x="15" y="50.042"/><ellipse cx="315.3835" cy="85.9951" fill="#222222" rx="10" ry="10" style="stroke:#222222;stroke-width:1;"/><path d="M415.4763,105.9951 L415.4763,137.2607 L395.4763,141.2607 L415.4763,145.2607 L415.4763,176.5264 A0,0 0 0 0 415.4763,176.5264 L574.614,176.5264 A0,0 0 0 0 574.614,176.5264 L574.614,115.9951 L564.614,105.9951 L415.4763,105.9951 A0,0 0 0 0 415.4763,105.9951" fill="#FEFFDD" style="stroke:#181818;stroke-width:0.5;"/><path d="M564.614,105.9951 L564.614,115.9951 L574.614,115.9951 L564.614,105.9951" fill="#FEFFDD" style="stroke:#181818;stroke-width:0.5;"/><text fill="#000000" font-family="sans-serif" font-size="13" font-weight="bold" lengthAdjust="spacing" textLength="55.415" x="421.4763" y="123.062">Can be:</text><text fill="#000000" font-family="sans-serif" font-size="13" lengthAdjust="spacing" textLength="138.1377" x="421.4763" y="138.1948">- Healthcare Provider</text><text fill="#000000" font-family="sans-serif" font-size="13" lengthAdjust="spacing" textLength="84.1382" x="421.4763" y="153.3276">- Pharma Co.</text><text fill="#000000" font-family="sans-serif" font-size="13" lengthAdjust="spacing" textLength="69.8052" x="421.4763" y="168.4604">- CRO, etc.</text><rect fill="#F1F1F1" height="33.9688" rx="12.5" ry="12.5" style="stroke:#181818;stroke-width:0.5;" width="160.1855" x="235.2908" y="124.2764"/><text fill="#000000" font-family="sans-serif" font-size="12" lengthAdjust="spacing" textLength="140.1855" x="245.2908" y="145.415">Creates New Challenge</text><rect fill="#F1F1F1" height="33.9688" rx="12.5" ry="12.5" style="stroke:#181818;stroke-width:0.5;" width="132.6289" x="249.0691" y="196.5264"/><text fill="#000000" font-family="sans-serif" font-size="12" lengthAdjust="spacing" textLength="112.6289" x="259.0691" y="217.665">Submits Challenge</text><rect fill="#F1F1F1" height="33.9688" rx="12.5" ry="12.5" style="stroke:#181818;stroke-width:0.5;" width="124.8301" x="113.0483" y="844.7139"/><text fill="#000000" font-family="sans-serif" font-size="12" lengthAdjust="spacing" textLength="104.8301" x="123.0483" y="865.8525">Reviews Proposal</text><polygon fill="#F1F1F1" points="112.2805,898.6826,238.6462,898.6826,250.6462,910.6826,238.6462,922.6826,112.2805,922.6826,100.2805,910.6826,112.2805,898.6826" style="stroke:#181818;stroke-width:0.5;"/><text fill="#000000" font-family="sans-serif" font-size="11" lengthAdjust="spacing" textLength="126.3657" x="112.2805" y="914.4907">Interested in Proposal?</text><text fill="#000000" font-family="sans-serif" font-size="11" lengthAdjust="spacing" textLength="27.8008" x="72.4797" y="908.0884">[Yes]</text><text fill="#000000" font-family="sans-serif" font-size="11" lengthAdjust="spacing" textLength="23.5415" x="250.6462" y="908.0884">[No]</text><rect fill="#F1F1F1" height="33.9688" rx="12.5" ry="12.5" style="stroke:#181818;stroke-width:0.5;" width="118.7129" x="21" y="942.6826"/><text fill="#000000" font-family="sans-serif" font-size="12" lengthAdjust="spacing" textLength="98.7129" x="31" y="963.8213">Initiates Contact</text><line style="stroke:#000000;stroke-width:1.5;" x1="15" x2="15" y1="50.042" y2="1158.5889"/><path d="M584.614,592.2764 L584.614,662.8076 A0,0 0 0 0 584.614,662.8076 L678.9358,662.8076 A0,0 0 0 0 678.9358,662.8076 L678.9358,631.542 L698.9358,627.542 L678.9358,623.542 L678.9358,602.2764 L668.9358,592.2764 L584.614,592.2764 A0,0 0 0 0 584.614,592.2764" fill="#FEFFDD" style="stroke:#181818;stroke-width:0.5;"/><path d="M668.9358,592.2764 L668.9358,602.2764 L678.9358,602.2764 L668.9358,592.2764" fill="#FEFFDD" style="stroke:#181818;stroke-width:0.5;"/><text fill="#000000" font-family="sans-serif" font-size="13" font-weight="bold" lengthAdjust="spacing" textLength="55.415" x="590.614" y="609.3433">Can be:</text><text fill="#000000" font-family="sans-serif" font-size="13" lengthAdjust="spacing" textLength="57.0718" x="590.614" y="624.4761">- Startup</text><text fill="#000000" font-family="sans-serif" font-size="13" lengthAdjust="spacing" textLength="73.3218" x="590.614" y="639.6089">- Academia</text><text fill="#000000" font-family="sans-serif" font-size="13" lengthAdjust="spacing" textLength="69.8052" x="590.614" y="654.7417">- CRO, etc.</text><rect fill="#F1F1F1" height="47.9375" rx="12.5" ry="12.5" style="stroke:#181818;stroke-width:0.5;" width="164.5859" x="698.9358" y="603.5732"/><text fill="#000000" font-family="sans-serif" font-size="12" lengthAdjust="spacing" textLength="122.2441" x="708.9358" y="624.7119">Discovers Challenge</text><text fill="#000000" font-family="sans-serif" font-size="12" lengthAdjust="spacing" textLength="144.5859" x="708.9358" y="638.6807">(via Nudge or browsing)</text><rect fill="#F1F1F1" height="33.9688" rx="12.5" ry="12.5" style="stroke:#181818;stroke-width:0.5;" width="124.0449" x="719.2063" y="682.8076"/><text fill="#000000" font-family="sans-serif" font-size="12" lengthAdjust="spacing" textLength="104.0449" x="729.2063" y="703.9463">Submits Proposal</text><line style="stroke:#000000;stroke-width:1.5;" x1="579.614" x2="579.614" y1="50.042" y2="1158.5889"/><rect fill="#F1F1F1" height="33.9688" rx="12.5" ry="12.5" style="stroke:#181818;stroke-width:0.5;" width="279.125" x="1075.8799" y="250.4951"/><text fill="#000000" font-family="sans-serif" font-size="12" lengthAdjust="spacing" textLength="259.125" x="1085.8799" y="271.6338">Creates Challenge record (status: Pending)</text><rect fill="#F1F1F1" height="33.9688" rx="12.5" ry="12.5" style="stroke:#181818;stroke-width:0.5;" width="107.8203" x="1161.5322" y="304.4639"/><text fill="#000000" font-family="sans-serif" font-size="12" lengthAdjust="spacing" textLength="87.8203" x="1171.5322" y="325.6025">Notifies Admin</text><rect fill="#F1F1F1" height="33.9688" rx="12.5" ry="12.5" style="stroke:#181818;stroke-width:0.5;" width="194.9668" x="978.0388" y="456.4014"/><text fill="#000000" font-family="sans-serif" font-size="12" lengthAdjust="spacing" textLength="174.9668" x="988.0388" y="477.54">Publishes Challenge to board</text><rect fill="#F1F1F1" height="47.9375" rx="12.5" ry="12.5" style="stroke:#181818;stroke-width:0.5;" width="185.3867" x="982.8289" y="510.3701"/><text fill="#000000" font-family="sans-serif" font-size="12" lengthAdjust="spacing" textLength="3.8145" x="992.8289" y="531.5088">&#160;</text><text fill="#000000" font-family="sans-serif" font-size="12" font-weight="bold" lengthAdjust="spacing" textLength="63.7969" x="996.6433" y="531.5088">(Co-pilot)</text><text fill="#000000" font-family="sans-serif" font-size="12" lengthAdjust="spacing" textLength="81.7676" x="1064.2546" y="531.5088">Identifies and</text><text fill="#000000" font-family="sans-serif" font-size="12" lengthAdjust="spacing" textLength="165.3867" x="992.8289" y="545.4775">notifies relevant Innovators</text><rect fill="#F1F1F1" height="33.9688" rx="12.5" ry="12.5" style="stroke:#181818;stroke-width:0.5;" width="164.2344" x="993.405" y="736.7764"/><text fill="#000000" font-family="sans-serif" font-size="12" lengthAdjust="spacing" textLength="144.2344" x="1003.405" y="757.915">Creates Proposal record</text><rect fill="#F1F1F1" height="33.9688" rx="12.5" ry="12.5" style="stroke:#181818;stroke-width:0.5;" width="111.0137" x="1020.0154" y="790.7451"/><text fill="#000000" font-family="sans-serif" font-size="12" lengthAdjust="spacing" textLength="91.0137" x="1030.0154" y="811.8838">Notifies Seeker</text><rect fill="#F1F1F1" height="33.9688" rx="12.5" ry="12.5" style="stroke:#181818;stroke-width:0.5;" width="213.7871" x="873.5217" y="996.6514"/><text fill="#000000" font-family="sans-serif" font-size="12" lengthAdjust="spacing" textLength="193.7871" x="883.5217" y="1017.79">Creates private message thread</text><rect fill="#F1F1F1" height="33.9688" rx="12.5" ry="12.5" style="stroke:#181818;stroke-width:0.5;" width="191.8555" x="884.4875" y="1050.6201"/><text fill="#000000" font-family="sans-serif" font-size="12" lengthAdjust="spacing" textLength="171.8555" x="894.4875" y="1071.7588">Sends introductory message</text><ellipse cx="980.4153" cy="1115.5889" fill="none" rx="11" ry="11" style="stroke:#222222;stroke-width:1;"/><ellipse cx="980.4153" cy="1115.5889" fill="#222222" rx="6" ry="6" style="stroke:#222222;stroke-width:1;"/><rect fill="#F1F1F1" height="33.9688" rx="12.5" ry="12.5" style="stroke:#181818;stroke-width:0.5;" width="126.6406" x="1107.3088" y="942.6826"/><text fill="#000000" font-family="sans-serif" font-size="12" lengthAdjust="spacing" textLength="106.6406" x="1117.3088" y="963.8213">Archives Proposal</text><ellipse cx="1170.6292" cy="1007.6514" fill="none" rx="11" ry="11" style="stroke:#222222;stroke-width:1;"/><ellipse cx="1170.6292" cy="1007.6514" fill="#222222" rx="6" ry="6" style="stroke:#222222;stroke-width:1;"/><rect fill="#F1F1F1" height="33.9688" rx="12.5" ry="12.5" style="stroke:#181818;stroke-width:0.5;" width="127.8008" x="1291.4622" y="456.4014"/><text fill="#000000" font-family="sans-serif" font-size="12" lengthAdjust="spacing" textLength="107.8008" x="1301.4622" y="477.54">Rejects Challenge</text><rect fill="#F1F1F1" height="33.9688" rx="12.5" ry="12.5" style="stroke:#181818;stroke-width:0.5;" width="182.8262" x="1263.9495" y="510.3701"/><text fill="#000000" font-family="sans-serif" font-size="12" lengthAdjust="spacing" textLength="162.8262" x="1273.9495" y="531.5088">Notifies Seeker of rejection</text><ellipse cx="1355.3625" cy="589.3076" fill="none" rx="11" ry="11" style="stroke:#222222;stroke-width:1;"/><ellipse cx="1355.3625" cy="589.3076" fill="#222222" rx="6" ry="6" style="stroke:#222222;stroke-width:1;"/><line style="stroke:#000000;stroke-width:1.5;" x1="867.5217" x2="867.5217" y1="50.042" y2="1158.5889"/><rect fill="#F1F1F1" height="33.9688" rx="12.5" ry="12.5" style="stroke:#181818;stroke-width:0.5;" width="204.5117" x="1456.7756" y="358.4326"/><text fill="#000000" font-family="sans-serif" font-size="12" lengthAdjust="spacing" textLength="184.5117" x="1466.7756" y="379.5713">Reviews Challenge submission</text><polygon fill="#F1F1F1" points="1500.3657,412.4014,1617.6973,412.4014,1629.6973,424.4014,1617.6973,436.4014,1500.3657,436.4014,1488.3657,424.4014,1500.3657,412.4014" style="stroke:#181818;stroke-width:0.5;"/><text fill="#000000" font-family="sans-serif" font-size="11" lengthAdjust="spacing" textLength="117.3315" x="1500.3657" y="428.2095">Challenge Approved?</text><text fill="#000000" font-family="sans-serif" font-size="11" lengthAdjust="spacing" textLength="27.8008" x="1460.5649" y="421.8071">[Yes]</text><text fill="#000000" font-family="sans-serif" font-size="11" lengthAdjust="spacing" textLength="23.5415" x="1629.6973" y="421.8071">[No]</text><line style="stroke:#000000;stroke-width:1.5;" x1="1450.7756" x2="1450.7756" y1="50.042" y2="1158.5889"/><line style="stroke:#000000;stroke-width:1.5;" x1="1665.2874" x2="1665.2874" y1="50.042" y2="1158.5889"/><line style="stroke:#181818;stroke-width:1;" x1="315.3835" x2="315.3835" y1="95.9951" y2="124.2764"/><polygon fill="#181818" points="311.3835,114.2764,315.3835,124.2764,319.3835,114.2764,315.3835,118.2764" style="stroke:#181818;stroke-width:1;"/><line style="stroke:#181818;stroke-width:1;" x1="315.3835" x2="315.3835" y1="158.2451" y2="196.5264"/><polygon fill="#181818" points="311.3835,186.5264,315.3835,196.5264,319.3835,186.5264,315.3835,190.5264" style="stroke:#181818;stroke-width:1;"/><line style="stroke:#181818;stroke-width:1;" x1="100.2805" x2="80.3564" y1="910.6826" y2="910.6826"/><line style="stroke:#181818;stroke-width:1;" x1="80.3564" x2="80.3564" y1="910.6826" y2="942.6826"/><polygon fill="#181818" points="76.3564,932.6826,80.3564,942.6826,84.3564,932.6826,80.3564,936.6826" style="stroke:#181818;stroke-width:1;"/><line style="stroke:#181818;stroke-width:1;" x1="175.4634" x2="175.4634" y1="878.6826" y2="898.6826"/><polygon fill="#181818" points="171.4634,888.6826,175.4634,898.6826,179.4634,888.6826,175.4634,892.6826" style="stroke:#181818;stroke-width:1;"/><line style="stroke:#181818;stroke-width:1;" x1="781.2288" x2="781.2288" y1="651.5107" y2="682.8076"/><polygon fill="#181818" points="777.2288,672.8076,781.2288,682.8076,785.2288,672.8076,781.2288,676.8076" style="stroke:#181818;stroke-width:1;"/><line style="stroke:#181818;stroke-width:1;" x1="1215.4424" x2="1215.4424" y1="284.4639" y2="304.4639"/><polygon fill="#181818" points="1211.4424,294.4639,1215.4424,304.4639,1219.4424,294.4639,1215.4424,298.4639" style="stroke:#181818;stroke-width:1;"/><line style="stroke:#181818;stroke-width:1;" x1="1075.5222" x2="1075.5222" y1="490.3701" y2="510.3701"/><polygon fill="#181818" points="1071.5222,500.3701,1075.5222,510.3701,1079.5222,500.3701,1075.5222,504.3701" style="stroke:#181818;stroke-width:1;"/><line style="stroke:#181818;stroke-width:1;" x1="1075.5222" x2="1075.5222" y1="770.7451" y2="790.7451"/><polygon fill="#181818" points="1071.5222,780.7451,1075.5222,790.7451,1079.5222,780.7451,1075.5222,784.7451" style="stroke:#181818;stroke-width:1;"/><line style="stroke:#181818;stroke-width:1;" x1="980.4153" x2="980.4153" y1="1030.6201" y2="1050.6201"/><polygon fill="#181818" points="976.4153,1040.6201,980.4153,1050.6201,984.4153,1040.6201,980.4153,1044.6201" style="stroke:#181818;stroke-width:1;"/><line style="stroke:#181818;stroke-width:1;" x1="980.4153" x2="980.4153" y1="1084.5889" y2="1104.5889"/><polygon fill="#181818" points="976.4153,1094.5889,980.4153,1104.5889,984.4153,1094.5889,980.4153,1098.5889" style="stroke:#181818;stroke-width:1;"/><line style="stroke:#181818;stroke-width:1;" x1="1170.6292" x2="1170.6292" y1="976.6514" y2="996.6514"/><polygon fill="#181818" points="1166.6292,986.6514,1170.6292,996.6514,1174.6292,986.6514,1170.6292,990.6514" style="stroke:#181818;stroke-width:1;"/><line style="stroke:#181818;stroke-width:1;" x1="1355.3625" x2="1355.3625" y1="490.3701" y2="510.3701"/><polygon fill="#181818" points="1351.3625,500.3701,1355.3625,510.3701,1359.3625,500.3701,1355.3625,504.3701" style="stroke:#181818;stroke-width:1;"/><line style="stroke:#181818;stroke-width:1;" x1="1355.3625" x2="1355.3625" y1="544.3389" y2="578.3076"/><polygon fill="#181818" points="1351.3625,568.3076,1355.3625,578.3076,1359.3625,568.3076,1355.3625,572.3076" style="stroke:#181818;stroke-width:1;"/><line style="stroke:#181818;stroke-width:1;" x1="1559.0315" x2="1559.0315" y1="392.4014" y2="412.4014"/><polygon fill="#181818" points="1555.0315,402.4014,1559.0315,412.4014,1563.0315,402.4014,1559.0315,406.4014" style="stroke:#181818;stroke-width:1;"/><line style="stroke:#181818;stroke-width:1;" x1="315.3835" x2="315.3835" y1="230.4951" y2="235.4951"/><line style="stroke:#181818;stroke-width:1;" x1="315.3835" x2="1215.4424" y1="235.4951" y2="235.4951"/><line style="stroke:#181818;stroke-width:1;" x1="1215.4424" x2="1215.4424" y1="235.4951" y2="250.4951"/><polygon fill="#181818" points="1211.4424,240.4951,1215.4424,250.4951,1219.4424,240.4951,1215.4424,244.4951" style="stroke:#181818;stroke-width:1;"/><line style="stroke:#181818;stroke-width:1;" x1="1215.4424" x2="1215.4424" y1="338.4326" y2="343.4326"/><line style="stroke:#181818;stroke-width:1;" x1="1215.4424" x2="1559.0315" y1="343.4326" y2="343.4326"/><line style="stroke:#181818;stroke-width:1;" x1="1559.0315" x2="1559.0315" y1="343.4326" y2="358.4326"/><polygon fill="#181818" points="1555.0315,348.4326,1559.0315,358.4326,1563.0315,348.4326,1559.0315,352.4326" style="stroke:#181818;stroke-width:1;"/><line style="stroke:#181818;stroke-width:1;" x1="1075.5222" x2="1075.5222" y1="558.3076" y2="580.4248"/><line style="stroke:#181818;stroke-width:1;" x1="1075.5222" x2="781.2288" y1="580.4248" y2="580.4248"/><line style="stroke:#181818;stroke-width:1;" x1="781.2288" x2="781.2288" y1="580.4248" y2="603.5732"/><polygon fill="#181818" points="777.2288,593.5732,781.2288,603.5732,785.2288,593.5732,781.2288,597.5732" style="stroke:#181818;stroke-width:1;"/><line style="stroke:#181818;stroke-width:1;" x1="781.2288" x2="781.2288" y1="716.7764" y2="721.7764"/><line style="stroke:#181818;stroke-width:1;" x1="781.2288" x2="1075.5222" y1="721.7764" y2="721.7764"/><line style="stroke:#181818;stroke-width:1;" x1="1075.5222" x2="1075.5222" y1="721.7764" y2="736.7764"/><polygon fill="#181818" points="1071.5222,726.7764,1075.5222,736.7764,1079.5222,726.7764,1075.5222,730.7764" style="stroke:#181818;stroke-width:1;"/><line style="stroke:#181818;stroke-width:1;" x1="1075.5222" x2="1075.5222" y1="824.7139" y2="829.7139"/><line style="stroke:#181818;stroke-width:1;" x1="1075.5222" x2="175.4634" y1="829.7139" y2="829.7139"/><line style="stroke:#181818;stroke-width:1;" x1="175.4634" x2="175.4634" y1="829.7139" y2="844.7139"/><polygon fill="#181818" points="171.4634,834.7139,175.4634,844.7139,179.4634,834.7139,175.4634,838.7139" style="stroke:#181818;stroke-width:1;"/><line style="stroke:#181818;stroke-width:1;" x1="80.3564" x2="80.3564" y1="976.6514" y2="981.6514"/><line style="stroke:#181818;stroke-width:1;" x1="80.3564" x2="980.4153" y1="981.6514" y2="981.6514"/><line style="stroke:#181818;stroke-width:1;" x1="980.4153" x2="980.4153" y1="981.6514" y2="996.6514"/><polygon fill="#181818" points="976.4153,986.6514,980.4153,996.6514,984.4153,986.6514,980.4153,990.6514" style="stroke:#181818;stroke-width:1;"/><line style="stroke:#181818;stroke-width:1;" x1="250.6462" x2="1170.6292" y1="910.6826" y2="910.6826"/><line style="stroke:#181818;stroke-width:1;" x1="1170.6292" x2="1170.6292" y1="910.6826" y2="942.6826"/><polygon fill="#181818" points="1166.6292,932.6826,1170.6292,942.6826,1174.6292,932.6826,1170.6292,936.6826" style="stroke:#181818;stroke-width:1;"/><line style="stroke:#181818;stroke-width:1;" x1="1488.3657" x2="1075.5222" y1="424.4014" y2="424.4014"/><line style="stroke:#181818;stroke-width:1;" x1="1075.5222" x2="1075.5222" y1="424.4014" y2="456.4014"/><polygon fill="#181818" points="1071.5222,446.4014,1075.5222,456.4014,1079.5222,446.4014,1075.5222,450.4014" style="stroke:#181818;stroke-width:1;"/><line style="stroke:#181818;stroke-width:1;" x1="1629.6973" x2="1641.6973" y1="424.4014" y2="424.4014"/><line style="stroke:#181818;stroke-width:1;" x1="1641.6973" x2="1641.6973" y1="424.4014" y2="442.4014"/><line style="stroke:#181818;stroke-width:1;" x1="1641.6973" x2="1355.3625" y1="442.4014" y2="442.4014"/><line style="stroke:#181818;stroke-width:1;" x1="1355.3625" x2="1355.3625" y1="442.4014" y2="456.4014"/><polygon fill="#181818" points="1351.3625,446.4014,1355.3625,456.4014,1359.3625,446.4014,1355.3625,450.4014" style="stroke:#181818;stroke-width:1;"/><text fill="#000000" font-family="sans-serif" font-size="18" lengthAdjust="spacing" textLength="62.4727" x="266.0707" y="66.75">Seeker</text><text fill="#000000" font-family="sans-serif" font-size="18" lengthAdjust="spacing" textLength="86.291" x="680.4224" y="66.75">Innovator</text><text fill="#000000" font-family="sans-serif" font-size="18" lengthAdjust="spacing" textLength="67.1221" x="1125.5876" y="66.75">System</text><text fill="#000000" font-family="sans-serif" font-size="18" lengthAdjust="spacing" textLength="57.6826" x="1529.1902" y="66.75">Admin</text><!--SRC=[RLHBQzj04BxxLmmvjBPe2htAXs8SIdrnJLmefSbXhHrPaqYxOdSaOyYFx-Zzi7KGsdb_tpUhpx29c4hYApoHEZkLmRSGVYS8M-iG7hQ9IbCqPuHFS70sjrwb3_37klSujPS5o5E_W8dJAhxAwjmX_70sWw76rg5YiWROIdrZCAfE3wCo7qV4TtGVxMbdZ2qLszvml7h6h3jjT4QcFYnkaZqhn_LNMBT53tky3CEiQv-nZE3ed3IX046mLGPE60P1Qtc4dwXIJY8bq8I3aZIwtdT8bCkKeFdQcxRFlxu0SjHOqEYwIpFAiJXbn7usnk86Mp_pG9x3o3eDIm76XG_X89N9d5SDa71lcMAIZ9gKKTc190YViIIyZAlwQY3lHOQc3iMm7BoRF1V0gB-lW1CqiFpt5_thgeKwLGF2Gt5AoIUJgKNfarLEhxiWONYvjOyvfPPNGG0xZQQTN1dz8eAt9uSfbiemz4lW1rHtTWF29_AHJEj6_L_CiYG5-qBBBDR1oTcB7rXh5o35kDF_tWPKeXwhTIhoaMKJAOqPgP5fglnC-v7wtKsQu9cHsIr05zlgt_FOwzqi_RJK-18Dga_Qjbhl3AD3wQo1J1znNsyfjJF4r2ocDQmYNlU-6O0HXDoH28MGeVUgseb477h838z2b9V-xAmk8f7qsiKEGPvjnpwc7cMqlHrFjd5HGYNUefocofs95_UB24zlyaUQNyuxsiou1nkBEc_DtwpBwPlMBVy3]--></g></svg>