<svg xmlns="http://www.w3.org/2000/svg" xmlns:xlink="http://www.w3.org/1999/xlink" contentStyleType="text/css" data-diagram-type="DESCRIPTION" height="748px" preserveAspectRatio="none" style="width:3279px;height:748px;background:#FFFFFF;" version="1.1" viewBox="0 0 3279 748" width="3279px" zoomAndPan="magnify"><defs/><g><!--cluster Authenticated Users--><g class="cluster" data-entity="Authenticated Users" data-source-line="7" data-uid="ent0004" id="cluster_Authenticated Users"><path d="M1902.5,6 L2065.1768,6 A3.75,3.75 0 0 1 2067.6768,8.5 L2074.6768,28.2969 L2080.5,28.2969 A2.5,2.5 0 0 1 2083,30.7969 L2083,327.09 A2.5,2.5 0 0 1 2080.5,329.59 L1902.5,329.59 A2.5,2.5 0 0 1 1900,327.09 L1900,8.5 A2.5,2.5 0 0 1 1902.5,6" fill="none" style="stroke:#000000;stroke-width:1.5;"/><line style="stroke:#000000;stroke-width:1.5;" x1="1900" x2="2074.6768" y1="28.2969" y2="28.2969"/><text fill="#000000" font-family="sans-serif" font-size="14" font-weight="bold" lengthAdjust="spacing" textLength="161.6768" x="1904" y="20.9951">Authenticated Users</text></g><!--cluster Ecosystem Players (Seekers)--><g class="cluster" data-entity="Ecosystem Players .Seekers." data-source-line="18" data-uid="ent0010" id="cluster_Ecosystem Players .Seekers."><path d="M1959.5,362.59 L2188.5742,362.59 A3.75,3.75 0 0 1 2191.0742,365.09 L2198.0742,384.8869 L2381.5,384.8869 A2.5,2.5 0 0 1 2384,387.3869 L2384,506.39 A2.5,2.5 0 0 1 2381.5,508.89 L1959.5,508.89 A2.5,2.5 0 0 1 1957,506.39 L1957,365.09 A2.5,2.5 0 0 1 1959.5,362.59" fill="none" style="stroke:#000000;stroke-width:1.5;"/><line style="stroke:#000000;stroke-width:1.5;" x1="1957" x2="2198.0742" y1="384.8869" y2="384.8869"/><text fill="#000000" font-family="sans-serif" font-size="14" font-weight="bold" lengthAdjust="spacing" textLength="228.0742" x="1961" y="377.5851">Ecosystem Players (Seekers)</text></g><!--cluster Dual-Role Stakeholders--><g class="cluster" data-entity="Dual-Role Stakeholders" data-source-line="27" data-uid="ent0017" id="cluster_Dual-Role Stakeholders"><path d="M2858.5,26.26 L3044.877,26.26 A3.75,3.75 0 0 1 3047.377,28.76 L3054.377,48.5569 L3269.5,48.5569 A2.5,2.5 0 0 1 3272,51.0569 L3272,327.09 A2.5,2.5 0 0 1 3269.5,329.59 L2858.5,329.59 A2.5,2.5 0 0 1 2856,327.09 L2856,28.76 A2.5,2.5 0 0 1 2858.5,26.26" fill="none" style="stroke:#000000;stroke-width:1.5;"/><line style="stroke:#000000;stroke-width:1.5;" x1="2856" x2="3054.377" y1="48.5569" y2="48.5569"/><text fill="#000000" font-family="sans-serif" font-size="14" font-weight="bold" lengthAdjust="spacing" textLength="185.377" x="2860" y="41.2551">Dual-Role Stakeholders</text></g><!--cluster Innovators & Providers--><g class="cluster" data-entity="Innovators . Providers" data-source-line="36" data-uid="ent0025" id="cluster_Innovators . Providers"><path d="M1424.5,362.59 L1607.8008,362.59 A3.75,3.75 0 0 1 1610.3008,365.09 L1617.3008,384.8869 L1880.5,384.8869 A2.5,2.5 0 0 1 1883,387.3869 L1883,506.39 A2.5,2.5 0 0 1 1880.5,508.89 L1424.5,508.89 A2.5,2.5 0 0 1 1422,506.39 L1422,365.09 A2.5,2.5 0 0 1 1424.5,362.59" fill="none" style="stroke:#000000;stroke-width:1.5;"/><line style="stroke:#000000;stroke-width:1.5;" x1="1422" x2="1617.3008" y1="384.8869" y2="384.8869"/><text fill="#000000" font-family="sans-serif" font-size="14" font-weight="bold" lengthAdjust="spacing" textLength="182.3008" x="1426" y="377.5851">Innovators &amp; Providers</text></g><!--cluster Service & Enablers--><g class="cluster" data-entity="Service . Enablers" data-source-line="47" data-uid="ent0034" id="cluster_Service . Enablers"><path d="M2109.5,183.29 L2259.1885,183.29 A3.75,3.75 0 0 1 2261.6885,185.79 L2268.6885,205.5869 L2540.5,205.5869 A2.5,2.5 0 0 1 2543,208.0869 L2543,327.09 A2.5,2.5 0 0 1 2540.5,329.59 L2109.5,329.59 A2.5,2.5 0 0 1 2107,327.09 L2107,185.79 A2.5,2.5 0 0 1 2109.5,183.29" fill="none" style="stroke:#000000;stroke-width:1.5;"/><line style="stroke:#000000;stroke-width:1.5;" x1="2107" x2="2268.6885" y1="205.5869" y2="205.5869"/><text fill="#000000" font-family="sans-serif" font-size="14" font-weight="bold" lengthAdjust="spacing" textLength="148.6885" x="2111" y="198.2851">Service &amp; Enablers</text></g><!--cluster Innovation Exchange Platform--><g class="cluster" data-entity="Innovation Exchange Platform" data-source-line="58" data-uid="ent0041" id="cluster_Innovation Exchange Platform"><rect fill="none" height="184.72" rx="2.5" ry="2.5" style="stroke:#181818;stroke-width:1;" width="2993" x="7" y="557.89"/><text fill="#000000" font-family="sans-serif" font-size="14" font-weight="bold" lengthAdjust="spacing" textLength="238.3486" x="1384.3257" y="572.8851">Innovation Exchange Platform</text></g><!--cluster Innovator Functions--><g class="cluster" data-entity="Innovator Functions" data-source-line="64" data-uid="ent0046" id="cluster_Innovator Functions"><path d="M1065.5,600.89 L1225.1279,600.89 A3.75,3.75 0 0 1 1227.6279,603.39 L1234.6279,623.1869 L1934.5,623.1869 A2.5,2.5 0 0 1 1937,625.6869 L1937,716.11 A2.5,2.5 0 0 1 1934.5,718.61 L1065.5,718.61 A2.5,2.5 0 0 1 1063,716.11 L1063,603.39 A2.5,2.5 0 0 1 1065.5,600.89" fill="none" style="stroke:#000000;stroke-width:1.5;"/><line style="stroke:#000000;stroke-width:1.5;" x1="1063" x2="1234.6279" y1="623.1869" y2="623.1869"/><text fill="#000000" font-family="sans-serif" font-size="14" font-weight="bold" lengthAdjust="spacing" textLength="158.6279" x="1067" y="615.8851">Innovator Functions</text></g><!--cluster Seeker Functions--><g class="cluster" data-entity="Seeker Functions" data-source-line="71" data-uid="ent0051" id="cluster_Seeker Functions"><path d="M1963.5,601.27 L2101.3623,601.27 A3.75,3.75 0 0 1 2103.8623,603.77 L2110.8623,623.5669 L2824.5,623.5669 A2.5,2.5 0 0 1 2827,626.0669 L2827,715.73 A2.5,2.5 0 0 1 2824.5,718.23 L1963.5,718.23 A2.5,2.5 0 0 1 1961,715.73 L1961,603.77 A2.5,2.5 0 0 1 1963.5,601.27" fill="none" style="stroke:#000000;stroke-width:1.5;"/><line style="stroke:#000000;stroke-width:1.5;" x1="1961" x2="2110.8623" y1="623.5669" y2="623.5669"/><text fill="#000000" font-family="sans-serif" font-size="14" font-weight="bold" lengthAdjust="spacing" textLength="136.8623" x="1965" y="616.2651">Seeker Functions</text></g><!--cluster Admin Functions--><g class="cluster" data-entity="Admin Functions" data-source-line="78" data-uid="ent0056" id="cluster_Admin Functions"><path d="M501.5,606.68 L634.7891,606.68 A3.75,3.75 0 0 1 637.2891,609.18 L644.2891,628.9769 L1036.5,628.9769 A2.5,2.5 0 0 1 1039,631.4769 L1039,710.31 A2.5,2.5 0 0 1 1036.5,712.81 L501.5,712.81 A2.5,2.5 0 0 1 499,710.31 L499,609.18 A2.5,2.5 0 0 1 501.5,606.68" fill="none" style="stroke:#000000;stroke-width:1.5;"/><line style="stroke:#000000;stroke-width:1.5;" x1="499" x2="644.2891" y1="628.9769" y2="628.9769"/><text fill="#000000" font-family="sans-serif" font-size="14" font-weight="bold" lengthAdjust="spacing" textLength="132.2891" x="503" y="621.6751">Admin Functions</text></g><!--entity AuthUser--><g class="entity" data-entity="AuthUser" data-source-line="8" data-uid="ent0005" id="entity_AuthUser"><ellipse cx="1999.0019" cy="68.5" fill="#F1F1F1" rx="8" ry="8" style="stroke:#181818;stroke-width:0.5;"/><path d="M1999.0019,76.5 L1999.0019,103.5 M1986.0019,84.5 L2012.0019,84.5 M1999.0019,103.5 L1986.0019,118.5 M1999.0019,103.5 L2012.0019,118.5" fill="none" style="stroke:#181818;stroke-width:0.5;"/><text fill="#000000" font-family="sans-serif" font-size="14" lengthAdjust="spacing" textLength="135.3037" x="1931.35" y="132.9951">Authenticated User</text></g><!--entity Innovator--><g class="entity" data-entity="Innovator" data-source-line="9" data-uid="ent0006" id="entity_Innovator"><ellipse cx="1949.9976" cy="245.79" fill="#F1F1F1" rx="8" ry="8" style="stroke:#181818;stroke-width:0.5;"/><path d="M1949.9976,253.79 L1949.9976,280.79 M1936.9976,261.79 L1962.9976,261.79 M1949.9976,280.79 L1936.9976,295.79 M1949.9976,280.79 L1962.9976,295.79" fill="none" style="stroke:#181818;stroke-width:0.5;"/><text fill="#000000" font-family="sans-serif" font-size="14" lengthAdjust="spacing" textLength="67.1152" x="1916.44" y="310.2851">Innovator</text></g><!--entity Seeker--><g class="entity" data-entity="Seeker" data-source-line="10" data-uid="ent0007" id="entity_Seeker"><ellipse cx="2043.0049" cy="245.79" fill="#F1F1F1" rx="8" ry="8" style="stroke:#181818;stroke-width:0.5;"/><path d="M2043.0049,253.79 L2043.0049,280.79 M2030.0049,261.79 L2056.0049,261.79 M2043.0049,280.79 L2030.0049,295.79 M2043.0049,280.79 L2056.0049,295.79" fill="none" style="stroke:#181818;stroke-width:0.5;"/><text fill="#000000" font-family="sans-serif" font-size="14" lengthAdjust="spacing" textLength="48.5898" x="2018.71" y="310.2851">Seeker</text></g><!--entity HCP--><g class="entity" data-entity="HCP" data-source-line="19" data-uid="ent0011" id="entity_HCP"><ellipse cx="2043.0009" cy="425.09" fill="#F1F1F1" rx="8" ry="8" style="stroke:#181818;stroke-width:0.5;"/><path d="M2043.0009,433.09 L2043.0009,460.09 M2030.0009,441.09 L2056.0009,441.09 M2043.0009,460.09 L2030.0009,475.09 M2043.0009,460.09 L2056.0009,475.09" fill="none" style="stroke:#181818;stroke-width:0.5;"/><text fill="#000000" font-family="sans-serif" font-size="14" lengthAdjust="spacing" textLength="139.2617" x="1973.37" y="489.5851">Healthcare Provider</text></g><!--entity Investor--><g class="entity" data-entity="Investor" data-source-line="20" data-uid="ent0012" id="entity_Investor"><ellipse cx="2176.0024" cy="425.09" fill="#F1F1F1" rx="8" ry="8" style="stroke:#181818;stroke-width:0.5;"/><path d="M2176.0024,433.09 L2176.0024,460.09 M2163.0024,441.09 L2189.0024,441.09 M2176.0024,460.09 L2163.0024,475.09 M2176.0024,460.09 L2189.0024,475.09" fill="none" style="stroke:#181818;stroke-width:0.5;"/><text fill="#000000" font-family="sans-serif" font-size="14" lengthAdjust="spacing" textLength="57.0049" x="2147.5" y="489.5851">Investor</text></g><!--entity Biz--><g class="entity" data-entity="Biz" data-source-line="21" data-uid="ent0013" id="entity_Biz"><ellipse cx="2303.9979" cy="425.09" fill="#F1F1F1" rx="8" ry="8" style="stroke:#181818;stroke-width:0.5;"/><path d="M2303.9979,433.09 L2303.9979,460.09 M2290.9979,441.09 L2316.9979,441.09 M2303.9979,460.09 L2290.9979,475.09 M2303.9979,460.09 L2316.9979,475.09" fill="none" style="stroke:#181818;stroke-width:0.5;"/><text fill="#000000" font-family="sans-serif" font-size="14" lengthAdjust="spacing" textLength="128.2559" x="2239.87" y="489.5851">Relevant Business</text></g><!--entity Pharma--><g class="entity" data-entity="Pharma" data-source-line="28" data-uid="ent0018" id="entity_Pharma"><ellipse cx="2939.9985" cy="245.79" fill="#F1F1F1" rx="8" ry="8" style="stroke:#181818;stroke-width:0.5;"/><path d="M2939.9985,253.79 L2939.9985,280.79 M2926.9985,261.79 L2952.9985,261.79 M2939.9985,280.79 L2926.9985,295.79 M2939.9985,280.79 L2952.9985,295.79" fill="none" style="stroke:#181818;stroke-width:0.5;"/><text fill="#000000" font-family="sans-serif" font-size="14" lengthAdjust="spacing" textLength="135.8369" x="2872.08" y="310.2851">Pharmaceutical Co.</text></g><!--entity CRO--><g class="entity" data-entity="CRO" data-source-line="29" data-uid="ent0019" id="entity_CRO"><ellipse cx="3058.0012" cy="245.79" fill="#F1F1F1" rx="8" ry="8" style="stroke:#181818;stroke-width:0.5;"/><path d="M3058.0012,253.79 L3058.0012,280.79 M3045.0012,261.79 L3071.0012,261.79 M3058.0012,280.79 L3045.0012,295.79 M3058.0012,280.79 L3071.0012,295.79" fill="none" style="stroke:#181818;stroke-width:0.5;"/><text fill="#000000" font-family="sans-serif" font-size="14" lengthAdjust="spacing" textLength="30.5225" x="3042.74" y="310.2851">CRO</text></g><!--entity Academia--><g class="entity" data-entity="Academia" data-source-line="30" data-uid="ent0020" id="entity_Academia"><ellipse cx="3181.9952" cy="245.79" fill="#F1F1F1" rx="8" ry="8" style="stroke:#181818;stroke-width:0.5;"/><path d="M3181.9952,253.79 L3181.9952,280.79 M3168.9952,261.79 L3194.9952,261.79 M3181.9952,280.79 L3168.9952,295.79 M3181.9952,280.79 L3194.9952,295.79" fill="none" style="stroke:#181818;stroke-width:0.5;"/><text fill="#000000" font-family="sans-serif" font-size="14" lengthAdjust="spacing" textLength="148.2305" x="3107.88" y="310.2851">Academia / Research</text></g><!--entity Innovator, Seeker--><g class="entity" data-entity="Innovator. Seeker" data-source-line="31" data-uid="ent0021" id="entity_Innovator. Seeker"><ellipse cx="3058.0016" cy="98.1383" fill="#F1F1F1" rx="77.4416" ry="17.8883" style="stroke:#181818;stroke-width:0.5;"/><text fill="#000000" font-family="sans-serif" font-size="14" lengthAdjust="spacing" textLength="124.6055" x="2995.6989" y="102.7868">Innovator, Seeker</text></g><!--entity Startup--><g class="entity" data-entity="Startup" data-source-line="37" data-uid="ent0026" id="entity_Startup"><ellipse cx="1464" cy="425.09" fill="#F1F1F1" rx="8" ry="8" style="stroke:#181818;stroke-width:0.5;"/><path d="M1464,433.09 L1464,460.09 M1451,441.09 L1477,441.09 M1464,460.09 L1451,475.09 M1464,460.09 L1477,475.09" fill="none" style="stroke:#181818;stroke-width:0.5;"/><text fill="#000000" font-family="sans-serif" font-size="14" lengthAdjust="spacing" textLength="51.96" x="1438.02" y="489.5851">Startup</text></g><!--entity BigCo--><g class="entity" data-entity="BigCo" data-source-line="38" data-uid="ent0027" id="entity_BigCo"><ellipse cx="1586.9974" cy="425.09" fill="#F1F1F1" rx="8" ry="8" style="stroke:#181818;stroke-width:0.5;"/><path d="M1586.9974,433.09 L1586.9974,460.09 M1573.9974,441.09 L1599.9974,441.09 M1586.9974,460.09 L1573.9974,475.09 M1586.9974,460.09 L1599.9974,475.09" fill="none" style="stroke:#181818;stroke-width:0.5;"/><text fill="#000000" font-family="sans-serif" font-size="14" lengthAdjust="spacing" textLength="124.1748" x="1524.91" y="489.5851">Mid-Large Int. Co.</text></g><!--entity Corporate--><g class="entity" data-entity="Corporate" data-source-line="39" data-uid="ent0028" id="entity_Corporate"><ellipse cx="1719.0032" cy="425.09" fill="#F1F1F1" rx="8" ry="8" style="stroke:#181818;stroke-width:0.5;"/><path d="M1719.0032,433.09 L1719.0032,460.09 M1706.0032,441.09 L1732.0032,441.09 M1719.0032,460.09 L1706.0032,475.09 M1719.0032,460.09 L1732.0032,475.09" fill="none" style="stroke:#181818;stroke-width:0.5;"/><text fill="#000000" font-family="sans-serif" font-size="14" lengthAdjust="spacing" textLength="69.9863" x="1684.01" y="489.5851">Corporate</text></g><!--entity Gov--><g class="entity" data-entity="Gov" data-source-line="40" data-uid="ent0029" id="entity_Gov"><ellipse cx="1827.9965" cy="425.09" fill="#F1F1F1" rx="8" ry="8" style="stroke:#181818;stroke-width:0.5;"/><path d="M1827.9965,433.09 L1827.9965,460.09 M1814.9965,441.09 L1840.9965,441.09 M1827.9965,460.09 L1814.9965,475.09 M1827.9965,460.09 L1840.9965,475.09" fill="none" style="stroke:#181818;stroke-width:0.5;"/><text fill="#000000" font-family="sans-serif" font-size="14" lengthAdjust="spacing" textLength="78.333" x="1788.83" y="489.5851">Govt &amp; PPP</text></g><!--entity ServicePartner--><g class="entity" data-entity="ServicePartner" data-source-line="48" data-uid="ent0035" id="entity_ServicePartner"><ellipse cx="2202.0039" cy="245.79" fill="#F1F1F1" rx="8" ry="8" style="stroke:#181818;stroke-width:0.5;"/><path d="M2202.0039,253.79 L2202.0039,280.79 M2189.0039,261.79 L2215.0039,261.79 M2202.0039,280.79 L2189.0039,295.79 M2202.0039,280.79 L2215.0039,295.79" fill="none" style="stroke:#181818;stroke-width:0.5;"/><text fill="#000000" font-family="sans-serif" font-size="14" lengthAdjust="spacing" textLength="157.0078" x="2123.5" y="310.2851">Studio/Service Partner</text></g><!--entity InnovPartner--><g class="entity" data-entity="InnovPartner" data-source-line="49" data-uid="ent0036" id="entity_InnovPartner"><ellipse cx="2381.0005" cy="245.79" fill="#F1F1F1" rx="8" ry="8" style="stroke:#181818;stroke-width:0.5;"/><path d="M2381.0005,253.79 L2381.0005,280.79 M2368.0005,261.79 L2394.0005,261.79 M2381.0005,280.79 L2368.0005,295.79 M2381.0005,280.79 L2394.0005,295.79" fill="none" style="stroke:#181818;stroke-width:0.5;"/><text fill="#000000" font-family="sans-serif" font-size="14" lengthAdjust="spacing" textLength="130.0811" x="2315.96" y="310.2851">Innovation Partner</text></g><!--entity Expert--><g class="entity" data-entity="Expert" data-source-line="50" data-uid="ent0037" id="entity_Expert"><ellipse cx="2503.998" cy="245.79" fill="#F1F1F1" rx="8" ry="8" style="stroke:#181818;stroke-width:0.5;"/><path d="M2503.998,253.79 L2503.998,280.79 M2490.998,261.79 L2516.998,261.79 M2503.998,280.79 L2490.998,295.79 M2503.998,280.79 L2516.998,295.79" fill="none" style="stroke:#181818;stroke-width:0.5;"/><text fill="#000000" font-family="sans-serif" font-size="14" lengthAdjust="spacing" textLength="45.876" x="2481.06" y="310.2851">Expert</text></g><!--entity UC_Register--><g class="entity" data-entity="UC_Register" data-source-line="59" data-uid="ent0042" id="entity_UC_Register"><ellipse cx="97.9954" cy="678.7531" fill="#F1F1F1" rx="75.3154" ry="17.4631" style="stroke:#181818;stroke-width:0.5;"/><text fill="#000000" font-family="sans-serif" font-size="14" lengthAdjust="spacing" textLength="119.4922" x="38.2493" y="683.4015">Register Account</text></g><!--entity UC_Login--><g class="entity" data-entity="UC_Login" data-source-line="60" data-uid="ent0043" id="entity_UC_Login"><ellipse cx="241.9964" cy="678.7536" fill="#F1F1F1" rx="33.1964" ry="14.5236" style="stroke:#181818;stroke-width:0.5;"/><text fill="#000000" font-family="sans-serif" font-size="14" lengthAdjust="spacing" textLength="42.7041" x="220.6443" y="683.4021">Log In</text></g><!--entity UC_Browse--><g class="entity" data-entity="UC_Browse" data-source-line="61" data-uid="ent0044" id="entity_UC_Browse"><ellipse cx="394.9993" cy="678.7539" fill="#F1F1F1" rx="84.8693" ry="19.3739" style="stroke:#181818;stroke-width:0.5;"/><text fill="#000000" font-family="sans-serif" font-size="14" lengthAdjust="spacing" textLength="142.0234" x="323.9876" y="683.4023">Browse Marketplace</text></g><!--entity UC_Profile--><g class="entity" data-entity="UC_Profile" data-source-line="62" data-uid="ent0045" id="entity_UC_Profile"><ellipse cx="2914.9973" cy="678.7535" fill="#F1F1F1" rx="69.1173" ry="16.2235" style="stroke:#181818;stroke-width:0.5;"/><text fill="#000000" font-family="sans-serif" font-size="14" lengthAdjust="spacing" textLength="104.1455" x="2862.9245" y="683.4019">Manage Profile</text></g><!--entity UC_ManageInnovations--><g class="entity" data-entity="UC_ManageInnovations" data-source-line="65" data-uid="ent0047" id="entity_UC_ManageInnovations"><ellipse cx="1186.0002" cy="678.752" fill="#F1F1F1" rx="107.3102" ry="23.862" style="stroke:#181818;stroke-width:0.5;"/><text fill="#000000" font-family="sans-serif" font-size="14" lengthAdjust="spacing" textLength="192.0488" x="1089.9758" y="683.4005">Manage Innovation Listings</text></g><!--entity UC_SubmitProposal--><g class="entity" data-entity="UC_SubmitProposal" data-source-line="66" data-uid="ent0048" id="entity_UC_SubmitProposal"><ellipse cx="1848.0011" cy="678.7502" fill="#F1F1F1" rx="73.1011" ry="17.0202" style="stroke:#181818;stroke-width:0.5;"/><text fill="#000000" font-family="sans-serif" font-size="14" lengthAdjust="spacing" textLength="114.0918" x="1790.9552" y="683.3987">Submit Proposal</text></g><!--entity UC_GTM--><g class="entity" data-entity="UC_GTM" data-source-line="67" data-uid="ent0049" id="entity_UC_GTM"><ellipse cx="1666.0043" cy="678.7529" fill="#F1F1F1" rx="73.7143" ry="17.1429" style="stroke:#181818;stroke-width:0.5;"/><text fill="#000000" font-family="sans-serif" font-size="14" lengthAdjust="spacing" textLength="115.5957" x="1608.2065" y="683.4013">Use GTM Copilot</text></g><!--entity UC_Validation--><g class="entity" data-entity="UC_Validation" data-source-line="68" data-uid="ent0050" id="entity_UC_Validation"><ellipse cx="1477.003" cy="678.7466" fill="#F1F1F1" rx="80.633" ry="18.5266" style="stroke:#181818;stroke-width:0.5;"/><text fill="#000000" font-family="sans-serif" font-size="14" lengthAdjust="spacing" textLength="132.166" x="1410.92" y="683.395">Request Validation</text></g><!--entity UC_ManageChallenges--><g class="entity" data-entity="UC_ManageChallenges" data-source-line="72" data-uid="ent0052" id="entity_UC_ManageChallenges"><ellipse cx="2310.0029" cy="678.7526" fill="#F1F1F1" rx="105.4129" ry="23.4826" style="stroke:#181818;stroke-width:0.5;"/><text fill="#000000" font-family="sans-serif" font-size="14" lengthAdjust="spacing" textLength="187.9199" x="2216.0429" y="683.401">Manage Challenge Listings</text></g><!--entity UC_ReviewProposals--><g class="entity" data-entity="UC_ReviewProposals" data-source-line="73" data-uid="ent0053" id="entity_UC_ReviewProposals"><ellipse cx="2527.0003" cy="678.7461" fill="#F1F1F1" rx="76.4803" ry="17.6961" style="stroke:#181818;stroke-width:0.5;"/><text fill="#000000" font-family="sans-serif" font-size="14" lengthAdjust="spacing" textLength="122.3018" x="2465.8494" y="683.3945">Review Proposals</text></g><!--entity UC_Scout--><g class="entity" data-entity="UC_Scout" data-source-line="74" data-uid="ent0054" id="entity_UC_Scout"><ellipse cx="2725.0045" cy="678.7469" fill="#F1F1F1" rx="86.2845" ry="19.6569" style="stroke:#181818;stroke-width:0.5;"/><text fill="#000000" font-family="sans-serif" font-size="14" lengthAdjust="spacing" textLength="145.2773" x="2652.3658" y="683.3953">Use Scouting Copilot</text></g><!--entity UC_Capital--><g class="entity" data-entity="UC_Capital" data-source-line="75" data-uid="ent0055" id="entity_UC_Capital"><ellipse cx="2073.0022" cy="678.7524" fill="#F1F1F1" rx="96.3622" ry="21.6724" style="stroke:#181818;stroke-width:0.5;"/><text fill="#000000" font-family="sans-serif" font-size="14" lengthAdjust="spacing" textLength="168.0068" x="1988.9988" y="683.4009">Access Capital Gateway</text></g><!--entity UC_ManageUsers--><g class="entity" data-entity="UC_ManageUsers" data-source-line="79" data-uid="ent0057" id="entity_UC_ManageUsers"><ellipse cx="582.0029" cy="678.7526" fill="#F1F1F1" rx="67.2129" ry="15.8426" style="stroke:#181818;stroke-width:0.5;"/><text fill="#000000" font-family="sans-serif" font-size="14" lengthAdjust="spacing" textLength="99.2646" x="532.3706" y="683.401">Manage Users</text></g><!--entity UC_Moderate--><g class="entity" data-entity="UC_Moderate" data-source-line="80" data-uid="ent0058" id="entity_UC_Moderate"><ellipse cx="763.0049" cy="678.755" fill="#F1F1F1" rx="78.3249" ry="18.065" style="stroke:#181818;stroke-width:0.5;"/><text fill="#000000" font-family="sans-serif" font-size="14" lengthAdjust="spacing" textLength="126.7109" x="699.6494" y="683.4034">Moderate Content</text></g><!--entity UC_Cohorts--><g class="entity" data-entity="UC_Cohorts" data-source-line="81" data-uid="ent0059" id="entity_UC_Cohorts"><ellipse cx="949.9979" cy="678.7536" fill="#F1F1F1" rx="73.2179" ry="17.0436" style="stroke:#181818;stroke-width:0.5;"/><text fill="#000000" font-family="sans-serif" font-size="14" lengthAdjust="spacing" textLength="114.3789" x="892.8085" y="683.402">Manage Cohorts</text></g><!--entity Visitor--><g class="entity" data-entity="Visitor" data-source-line="4" data-uid="ent0002" id="entity_Visitor"><ellipse cx="242.0046" cy="425.09" fill="#F1F1F1" rx="8" ry="8" style="stroke:#181818;stroke-width:0.5;"/><path d="M242.0046,433.09 L242.0046,460.09 M229.0046,441.09 L255.0046,441.09 M242.0046,460.09 L229.0046,475.09 M242.0046,460.09 L255.0046,475.09" fill="none" style="stroke:#181818;stroke-width:0.5;"/><text fill="#000000" font-family="sans-serif" font-size="14" lengthAdjust="spacing" textLength="139.8291" x="172.09" y="489.5851">Unregistered Visitor</text></g><!--entity Admin--><g class="entity" data-entity="Admin" data-source-line="5" data-uid="ent0003" id="entity_Admin"><ellipse cx="763.0013" cy="425.09" fill="#F1F1F1" rx="8" ry="8" style="stroke:#181818;stroke-width:0.5;"/><path d="M763.0013,433.09 L763.0013,460.09 M750.0013,441.09 L776.0013,441.09 M763.0013,460.09 L750.0013,475.09 M763.0013,460.09 L776.0013,475.09" fill="none" style="stroke:#181818;stroke-width:0.5;"/><text fill="#000000" font-family="sans-serif" font-size="14" lengthAdjust="spacing" textLength="95.6826" x="715.16" y="489.5851">Administrator</text></g><!--reverse link AuthUser to Innovator--><g class="link" data-entity-1="AuthUser" data-entity-2="Innovator" data-source-line="13" data-uid="lnk8" id="link_AuthUser_Innovator"><path d="M1983.6434,154.0852 C1975.3734,183.6652 1968.76,207.34 1960.49,236.9" fill="none" id="AuthUser-backto-Innovator" style="stroke:#181818;stroke-width:1;"/><polygon fill="none" points="1988.49,136.75,1977.865,152.4697,1989.4218,155.7008,1988.49,136.75" style="stroke:#181818;stroke-width:1;"/></g><!--reverse link AuthUser to Seeker--><g class="link" data-entity-1="AuthUser" data-entity-2="Seeker" data-source-line="14" data-uid="lnk9" id="link_AuthUser_Seeker"><path d="M2012.8195,154.2091 C2020.2395,183.7891 2026.16,207.34 2033.58,236.9" fill="none" id="AuthUser-backto-Seeker" style="stroke:#181818;stroke-width:1;"/><polygon fill="none" points="2008.44,136.75,2006.9998,155.6689,2018.6392,152.7492,2008.44,136.75" style="stroke:#181818;stroke-width:1;"/></g><!--reverse link Seeker to HCP--><g class="link" data-entity-1="Seeker" data-entity-2="HCP" data-source-line="22" data-uid="lnk14" id="link_Seeker_HCP"><path d="M2043,332.04 C2043,362.13 2043,386.12 2043,416.19" fill="none" id="Seeker-backto-HCP" style="stroke:#181818;stroke-width:1;"/><polygon fill="none" points="2043,314.04,2037,332.04,2049,332.04,2043,314.04" style="stroke:#181818;stroke-width:1;"/></g><!--reverse link Seeker to Investor--><g class="link" data-entity-1="Seeker" data-entity-2="Investor" data-source-line="23" data-uid="lnk15" id="link_Seeker_Investor"><path d="M2080.4043,313.9003 C2092.0443,325.3103 2093.48,326.21 2107,337.59 C2116.73,345.77 2121.96,344.74 2130,354.59 C2144.87,372.82 2156.13,396.65 2163.79,416.38" fill="none" id="Seeker-backto-Investor" style="stroke:#181818;stroke-width:1;"/><polygon fill="none" points="2067.55,301.3,2076.2042,318.1851,2084.6044,309.6155,2067.55,301.3" style="stroke:#181818;stroke-width:1;"/></g><!--reverse link Seeker to Biz--><g class="link" data-entity-1="Seeker" data-entity-2="Biz" data-source-line="24" data-uid="lnk16" id="link_Seeker_Biz"><path d="M2080.2047,320.1637 C2091.0347,331.5337 2092.23,330.37 2107,337.59 C2130.21,348.93 2199.5,341.9 2222,354.59 C2247.49,368.96 2268.37,394.58 2282.67,416.18" fill="none" id="Seeker-backto-Biz" style="stroke:#181818;stroke-width:1;"/><polygon fill="none" points="2067.79,307.13,2075.8601,324.3019,2084.5492,316.0254,2067.79,307.13" style="stroke:#181818;stroke-width:1;"/></g><!--reverse link Innovator, Seeker to Pharma--><g class="link" data-entity-1="Innovator. Seeker" data-entity-2="Pharma" data-source-line="31" data-uid="lnk22" id="link_Innovator. Seeker_Pharma"><path d="M3036.4199,131.203 C3017.6899,159.033 2990.27,199.76 2965.16,237.07" fill="none" id="Innovator, Seeker-backto-Pharma" style="stroke:#181818;stroke-width:1;"/><polygon fill="none" points="3046.47,116.27,3031.4422,127.853,3041.3975,134.5531,3046.47,116.27" style="stroke:#181818;stroke-width:1;"/></g><!--reverse link Innovator, Seeker to CRO--><g class="link" data-entity-1="Innovator. Seeker" data-entity-2="CRO" data-source-line="32" data-uid="lnk23" id="link_Innovator. Seeker_CRO"><path d="M3058,134.27 C3058,162.1 3058,199.76 3058,237.07" fill="none" id="Innovator, Seeker-backto-CRO" style="stroke:#181818;stroke-width:1;"/><polygon fill="none" points="3058,116.27,3052,134.27,3064,134.27,3058,116.27" style="stroke:#181818;stroke-width:1;"/></g><!--reverse link Innovator, Seeker to Academia--><g class="link" data-entity-1="Innovator. Seeker" data-entity-2="Academia" data-source-line="33" data-uid="lnk24" id="link_Innovator. Seeker_Academia"><path d="M3080.5127,130.9666 C3100.1927,158.7966 3129.18,199.76 3155.56,237.07" fill="none" id="Innovator, Seeker-backto-Academia" style="stroke:#181818;stroke-width:1;"/><polygon fill="none" points="3070.12,116.27,3075.6139,134.4309,3085.4116,127.5024,3070.12,116.27" style="stroke:#181818;stroke-width:1;"/></g><!--reverse link Innovator to Startup--><g class="link" data-entity-1="Innovator" data-entity-2="Startup" data-source-line="41" data-uid="lnk30" id="link_Innovator_Startup"><path d="M1898.215,279.4422 C1806.005,285.2022 1570.84,304.21 1507,354.59 C1487.85,369.7 1477.06,395.03 1471.08,416.31" fill="none" id="Innovator-backto-Startup" style="stroke:#181818;stroke-width:1;"/><polygon fill="none" points="1916.18,278.32,1897.8409,273.4539,1898.5891,285.4305,1916.18,278.32" style="stroke:#181818;stroke-width:1;"/></g><!--reverse link Innovator to BigCo--><g class="link" data-entity-1="Innovator" data-entity-2="BigCo" data-source-line="42" data-uid="lnk31" id="link_Innovator_BigCo"><path d="M1898.4139,280.8964 C1842.4439,286.6364 1746.48,302.44 1667,354.59 C1643.14,370.24 1623.02,395.29 1608.92,416.3" fill="none" id="Innovator-backto-BigCo" style="stroke:#181818;stroke-width:1;"/><polygon fill="none" points="1916.32,279.06,1897.8018,274.9277,1899.026,286.8651,1916.32,279.06" style="stroke:#181818;stroke-width:1;"/></g><!--reverse link Innovator to Corporate--><g class="link" data-entity-1="Innovator" data-entity-2="Corporate" data-source-line="43" data-uid="lnk32" id="link_Innovator_Corporate"><path d="M1898.801,288.4763 C1859.711,298.6563 1812.82,315.65 1771,354.59 C1752.93,371.41 1739.99,395.94 1731.54,416.4" fill="none" id="Innovator-backto-Corporate" style="stroke:#181818;stroke-width:1;"/><polygon fill="none" points="1916.22,283.94,1897.2889,282.67,1900.3131,294.2827,1916.22,283.94" style="stroke:#181818;stroke-width:1;"/></g><!--reverse link Innovator to Gov--><g class="link" data-entity-1="Innovator" data-entity-2="Gov" data-source-line="44" data-uid="lnk33" id="link_Innovator_Gov"><path d="M1906.9448,327.7788 C1898.7648,337.8988 1901.48,334.99 1894,345.59 C1877.96,368.33 1861.66,395 1849.27,416.17" fill="none" id="Innovator-backto-Gov" style="stroke:#181818;stroke-width:1;"/><polygon fill="none" points="1918.26,313.78,1902.2785,324.007,1911.611,331.5505,1918.26,313.78" style="stroke:#181818;stroke-width:1;"/></g><!--reverse link AuthUser to ServicePartner--><g class="link" data-entity-1="AuthUser" data-entity-2="ServicePartner" data-source-line="51" data-uid="lnk38" id="link_AuthUser_ServicePartner"><path d="M2056.1727,148.5153 C2090.4227,178.0953 2124.29,207.34 2158.52,236.9" fill="none" id="AuthUser-backto-ServicePartner" style="stroke:#181818;stroke-width:1;"/><polygon fill="none" points="2042.55,136.75,2052.251,153.0562,2060.0945,143.9744,2042.55,136.75" style="stroke:#181818;stroke-width:1;"/></g><!--reverse link AuthUser to InnovPartner--><g class="link" data-entity-1="AuthUser" data-entity-2="InnovPartner" data-source-line="52" data-uid="lnk39" id="link_AuthUser_InnovPartner"><path d="M2084.8029,106.5755 C2148.6629,114.2055 2226.93,130.58 2298,175.29 C2322.51,190.71 2343.39,215.77 2358.08,236.83" fill="none" id="AuthUser-backto-InnovPartner" style="stroke:#181818;stroke-width:1;"/><polygon fill="none" points="2066.93,104.44,2084.0911,112.5331,2085.5147,100.6178,2066.93,104.44" style="stroke:#181818;stroke-width:1;"/></g><!--reverse link AuthUser to Expert--><g class="link" data-entity-1="AuthUser" data-entity-2="Expert" data-source-line="53" data-uid="lnk40" id="link_AuthUser_Expert"><path d="M2084.8013,103.2261 C2198.7013,109.6661 2403.88,127.19 2464,175.29 C2482.84,190.37 2492.86,215.7 2498.16,236.98" fill="none" id="AuthUser-backto-Expert" style="stroke:#181818;stroke-width:1;"/><polygon fill="none" points="2066.83,102.21,2084.4626,109.2165,2085.14,97.2357,2066.83,102.21" style="stroke:#181818;stroke-width:1;"/></g><!--link Visitor to UC_Register--><g class="link" data-entity-1="Visitor" data-entity-2="UC_Register" data-source-line="86" data-uid="lnk60" id="link_Visitor_UC_Register"><path d="M217.74,493.15 C185.99,542.08 131.73,625.75 108.77,661.15" fill="none" id="Visitor-UC_Register" style="stroke:#181818;stroke-width:1;"/></g><!--link Visitor to UC_Login--><g class="link" data-entity-1="Visitor" data-entity-2="UC_Login" data-source-line="87" data-uid="lnk61" id="link_Visitor_UC_Login"><path d="M242,493.15 C242,543.32 242,630 242,663.74" fill="none" id="Visitor-UC_Login" style="stroke:#181818;stroke-width:1;"/></g><!--link Visitor to UC_Browse--><g class="link" data-entity-1="Visitor" data-entity-2="UC_Browse" data-source-line="88" data-uid="lnk62" id="link_Visitor_UC_Browse"><path d="M267.78,493.15 C300.91,541.22 357.13,622.8 382.24,659.23" fill="none" id="Visitor-UC_Browse" style="stroke:#181818;stroke-width:1;"/></g><!--link AuthUser to UC_Profile--><g class="link" data-entity-1="AuthUser" data-entity-2="UC_Profile" data-source-line="90" data-uid="lnk63" id="link_AuthUser_UC_Profile"><path d="M2066.71,102.22 C2194.04,109.04 2463.52,128.66 2543,175.29 C2753.17,298.6 2880.81,592.05 2909.04,662.4" fill="none" id="AuthUser-UC_Profile" style="stroke:#181818;stroke-width:1;"/></g><!--link Innovator to UC_ManageInnovations--><g class="link" data-entity-1="Innovator" data-entity-2="UC_ManageInnovations" data-source-line="92" data-uid="lnk64" id="link_Innovator_UC_ManageInnovations"><path d="M1916.3,276.9 C1812,279 1496.99,290.61 1422,354.59 C1355.6,411.23 1413.04,470.38 1363,541.89 C1327.35,592.82 1266.83,633.29 1226.63,656.4" fill="none" id="Innovator-UC_ManageInnovations" style="stroke:#181818;stroke-width:1;"/></g><!--link Innovator to UC_SubmitProposal--><g class="link" data-entity-1="Innovator" data-entity-2="UC_SubmitProposal" data-source-line="93" data-uid="lnk65" id="link_Innovator_UC_SubmitProposal"><path d="M1940.5,313.83 C1918.98,398.48 1867.26,601.98 1852.19,661.27" fill="none" id="Innovator-UC_SubmitProposal" style="stroke:#181818;stroke-width:1;"/></g><!--reverse link UC_ManageInnovations to UC_GTM--><g class="link" data-entity-1="UC_ManageInnovations" data-entity-2="UC_GTM" data-source-line="94" data-uid="lnk66" id="link_UC_ManageInnovations_UC_GTM"><path d="M1217.312,651.3821 C1252.522,622.0821 1313.16,577.43 1379,558.61 C1462.76,534.67 1496.99,519.84 1575,558.61 C1618.58,580.27 1646.87,633.88 1659.08,661.57" fill="none" id="UC_ManageInnovations-backto-UC_GTM" style="stroke:#181818;stroke-width:1;stroke-dasharray:7,7;"/><polygon fill="#181818" points="1212.7,655.22,1222.1766,652.5378,1216.5433,652.0218,1217.0594,646.3885,1212.7,655.22" style="stroke:#181818;stroke-width:1;"/><text fill="#000000" font-family="sans-serif" font-size="13" lengthAdjust="spacing" textLength="67.958" x="1293.5" y="537.9569">&#171;extends&#187;</text></g><!--reverse link UC_ManageInnovations to UC_Validation--><g class="link" data-entity-1="UC_ManageInnovations" data-entity-2="UC_Validation" data-source-line="95" data-uid="lnk67" id="link_UC_ManageInnovations_UC_Validation"><path d="M1299.53,678.75 C1333.53,678.75 1364.5,678.75 1396.29,678.75" fill="none" id="UC_ManageInnovations-backto-UC_Validation" style="stroke:#181818;stroke-width:1;stroke-dasharray:7,7;"/><polygon fill="#181818" points="1293.53,678.75,1302.53,682.75,1298.53,678.75,1302.53,674.75,1293.53,678.75" style="stroke:#181818;stroke-width:1;"/><text fill="#000000" font-family="sans-serif" font-size="13" lengthAdjust="spacing" textLength="67.958" x="1311.34" y="671.8169">&#171;extends&#187;</text></g><!--link Seeker to UC_ManageChallenges--><g class="link" data-entity-1="Seeker" data-entity-2="UC_ManageChallenges" data-source-line="97" data-uid="lnk68" id="link_Seeker_UC_ManageChallenges"><path d="M2067.79,308.1 C2078.54,319.46 2092.07,331.07 2107,337.59 C2135.26,349.94 2362.87,332.13 2384,354.59 C2465.23,440.96 2367.81,597.58 2326.66,655.46" fill="none" id="Seeker-UC_ManageChallenges" style="stroke:#181818;stroke-width:1;"/></g><!--link Seeker to UC_ReviewProposals--><g class="link" data-entity-1="Seeker" data-entity-2="UC_ReviewProposals" data-source-line="98" data-uid="lnk69" id="link_Seeker_UC_ReviewProposals"><path d="M2067.69,308.35 C2078.41,319.74 2091.97,331.31 2107,337.59 C2139.65,351.23 2398.71,330.9 2425,354.59 C2518.09,438.47 2526.89,606.48 2527.21,660.56" fill="none" id="Seeker-UC_ReviewProposals" style="stroke:#181818;stroke-width:1;"/></g><!--link Seeker to UC_Scout--><g class="link" data-entity-1="Seeker" data-entity-2="UC_Scout" data-source-line="99" data-uid="lnk70" id="link_Seeker_UC_Scout"><path d="M2067.68,308.38 C2078.4,319.78 2091.96,331.33 2107,337.59 C2146.64,354.07 2456.08,332.69 2493,354.59 C2618.93,429.29 2695.39,601.89 2717.96,659.01" fill="none" id="Seeker-UC_Scout" style="stroke:#181818;stroke-width:1;"/></g><!--link Investor to UC_Capital--><g class="link" data-entity-1="Investor" data-entity-2="UC_Capital" data-source-line="100" data-uid="lnk71" id="link_Investor_UC_Capital"><path d="M2158.64,493.15 C2136.8,540.23 2100.04,619.46 2082.66,656.92" fill="none" id="Investor-UC_Capital" style="stroke:#181818;stroke-width:1;"/></g><!--link Admin to UC_ManageUsers--><g class="link" data-entity-1="Admin" data-entity-2="UC_ManageUsers" data-source-line="102" data-uid="lnk72" id="link_Admin_UC_ManageUsers"><path d="M720.91,493.37 C703.39,509.93 683.36,530.1 667,549.89 C635.41,588.1 604.85,638.28 590.5,662.87" fill="none" id="Admin-UC_ManageUsers" style="stroke:#181818;stroke-width:1;"/></g><!--link Admin to UC_Moderate--><g class="link" data-entity-1="Admin" data-entity-2="UC_Moderate" data-source-line="103" data-uid="lnk73" id="link_Admin_UC_Moderate"><path d="M763,493.15 C763,541.71 763,624.49 763,660.34" fill="none" id="Admin-UC_Moderate" style="stroke:#181818;stroke-width:1;"/></g><!--link Admin to UC_Cohorts--><g class="link" data-entity-1="Admin" data-entity-2="UC_Cohorts" data-source-line="104" data-uid="lnk74" id="link_Admin_UC_Cohorts"><path d="M804.31,493.17 C821.89,509.86 842.17,530.18 859,549.89 C891.38,587.8 923.97,636.85 939.92,661.74" fill="none" id="Admin-UC_Cohorts" style="stroke:#181818;stroke-width:1;"/></g><!--SRC=[ZLPDRziu4BtdLmnysBH0azwBe43iPDC22TQmcruNZ3IMYCYaIb9EtDt-znsA7w8aUjD3FZJpXc_uE3FaEJngX1MZNpUSLOhjOISLVAiHlWeX3ynmAU3sjQYPg13M3JFatvy1WFs1SxZ17HS8ruMHIlSsPl-5nQDGM75jK649txdcP5q0q-7_17jTxhaWg6BsYo2z8PAqh7XcnBwuxaoDml226LgJCbTw0V_qc4Wxn_Iarcm_FDYZ_HxbnBn5VFRGu3Y7fHL9oGOrS56ZuWPsIkvXJXXY0YTS_NjnCUSQknDE-9LGHuMtBHQSDVmdiJYrWOaIY9oha14J1RgmgDbj8VMHJc5l3-z8Yi4xHwNV3ze5yRuWQqnTC4L7hUI1brwzBwlr1FbL753R4vtODzZWWGa3oqvJrbhtyKl-C-0SkTjpicng3cldV76bLAEusPkEDHSREYFO6lQCjMpAKOs4BDSrKtjMO6UFhO6LlEpJTEO9ThNvQxh9wuALkESCFi86DJ9LrAx8l3t0tyKp_-0tyTxjOanq4aRKRsB6d5bLOgY6F-AvPbGXpPJfskbk7tXvSSzKPKU2kOnYBNcrabEjf6ebTJ5ErxYJ1sF9r-i-bZu382Rdsy3bSC8xufpu8lS9V-JCQhH5TU05KewtWZqrOtqIXRgIouy1lAPSXMyHR_EcMMGoJTEetdmgvlQrHMKMWtqwCVACcR7p1iOHpTIP3A1mK-WFK2dPjJI7dewmwqHXjqMJoHnTXCA29b7Lu6ZRiqia4RZJMDZnIkF3NHbKreNiXEb5Ubpz7UopW7jPqHO3ZBxSlJ72B9LyeRyFJ3sZQHlg-u1tdbd00nEsAAXLTho9OFyvkXRcFGP_Ua761JHTEn7cddR6HQK3ZqCC09rPPTizxUa2efHQgLaJGfqvM3DnzWpllZrGixIyaL5UCcN06_pHqI26xtIsPPzAm0-M4FOhBuiVtR-doQfcJOEsHFAIHB_E9dlW-18LqKFbM7iqdz1aIzLc6QV2zFPC39KdtMtK3YrTkWtSqTXvOSSGvSrlQDC_SdvJ6l_MITNeJRa8ITETyg6j28D32mNx_-WlQwbCfF6VurrCtYR48QZRtSJIOAHT5EogFiu_ze2cpAoDnxwaTyUEf4dFniFB-UTzEJIZGvpeg2airpsvQBYwz4q3d-3g2bz9vb9__lncnD0scS2pzAsJvZqj-n4aLzuZm531uLdb7KcHzcvNZYdnK64ZNrf7gSFNoty0]--></g></svg>